<svg xmlns="http://www.w3.org/2000/svg" width="512" height="512" viewBox="0 0 512 512">
  <rect width="512" height="512" fill="#4E7ADC" rx="128" ry="128"/>
  <circle cx="256" cy="256" r="160" fill="#ffffff"/>
  <path d="M256 150 A50 50 0 0 1 306 200 A50 50 0 0 1 256 250 A50 50 0 0 1 206 200 A50 50 0 0 1 256 150 Z" fill="#4E7ADC"/>
  <path d="M176 280 C176 340 216 350 256 350 C296 350 336 340 336 280 L336.0001 336.0001 C336.0001 356.0001 316.0002 377 255.0002 376 C216.0002 375 175 362.0001 176 280 Z" fill="#4E7ADC"/>
</svg> 